<svg version="1.2" xmlns="http://www.w3.org/2000/svg" viewBox="0 0 148 25" width="148" height="25">
	<title>logo-bookmark</title>
	<style>
		.s0 { fill: #ffffff } 
	</style>
	<path fill-rule="evenodd" class="s0" d="m37 6.3h5.2q1.1 0 2.1 0.5 0.9 0.4 1.5 1.2 0.5 0.8 0.5 1.8 0 1-0.5 1.7-0.5 0.8-1.3 1.2v0.1q1.1 0.4 1.7 1.2 0.6 0.8 0.6 1.9 0 1.2-0.6 2-0.1 0.2-0.3 0.4-0.2 0.2-0.4 0.4-0.2 0.1-0.4 0.3-0.2 0.1-0.5 0.2-1 0.5-2.2 0.5h-5.4zm5 5.4q0.9 0 1.4-0.4 0.5-0.5 0.5-1.2 0-0.7-0.5-1.1-0.5-0.5-1.3-0.5h-2.6v3.2zm0.3 5.6q0.9 0 1.4-0.4 0.5-0.5 0.5-1.3 0-0.7-0.5-1.2-0.5-0.5-1.5-0.5h-2.7v3.4zm12.9 2.6q-1.9 0-3.5-0.9-0.4-0.2-0.8-0.5-0.3-0.3-0.7-0.6-0.3-0.3-0.5-0.7-0.3-0.3-0.5-0.7-1-1.6-1-3.6 0-1.9 1-3.5 0.2-0.4 0.5-0.7 0.2-0.4 0.5-0.7 0.4-0.3 0.7-0.6 0.4-0.3 0.8-0.5 1.6-0.9 3.5-0.9 2 0 3.6 0.9 0.4 0.2 0.7 0.5 0.4 0.3 0.7 0.6 0.3 0.3 0.6 0.7 0.3 0.3 0.5 0.7 0.9 1.6 0.9 3.5 0 2-0.9 3.6-0.2 0.4-0.5 0.7-0.3 0.4-0.6 0.7-0.3 0.3-0.7 0.6-0.3 0.3-0.7 0.5-1.6 0.9-3.6 0.9zm0-2.4q0.3 0 0.6 0 0.3 0 0.6-0.1 0.3-0.1 0.6-0.2 0.2-0.1 0.5-0.2 0.2-0.2 0.5-0.4 0.2-0.1 0.4-0.3 0.2-0.2 0.4-0.5 0.2-0.2 0.3-0.5 0.6-1 0.6-2.4 0-1.3-0.6-2.3-0.1-0.3-0.3-0.5-0.2-0.3-0.4-0.5-0.2-0.2-0.4-0.3-0.3-0.2-0.5-0.4-0.3-0.1-0.5-0.2-0.3-0.1-0.6-0.2-0.3-0.1-0.6-0.1-0.3 0-0.6 0-0.3 0-0.6 0-0.3 0-0.5 0.1-0.3 0.1-0.6 0.2-0.3 0.1-0.5 0.2-0.3 0.2-0.5 0.4-0.2 0.1-0.4 0.3-0.2 0.2-0.4 0.5-0.2 0.2-0.3 0.5-0.6 1-0.6 2.3 0 1.4 0.6 2.4 0.1 0.3 0.3 0.5 0.2 0.3 0.4 0.5 0.2 0.2 0.4 0.3 0.2 0.2 0.5 0.4 0.2 0.1 0.5 0.2 0.3 0.1 0.6 0.2 0.2 0.1 0.5 0.1 0.3 0 0.6 0zm15.4 2.4q-2 0-3.6-0.9-0.4-0.2-0.7-0.5-0.4-0.3-0.7-0.6-0.3-0.3-0.6-0.7-0.3-0.3-0.5-0.7-0.9-1.6-0.9-3.6 0-1.9 0.9-3.5 0.2-0.4 0.5-0.7 0.3-0.4 0.6-0.7 0.3-0.3 0.7-0.6 0.3-0.3 0.7-0.5 1.6-0.9 3.6-0.9 1.9 0 3.5 0.9 0.4 0.2 0.8 0.5 0.3 0.3 0.7 0.6 0.3 0.3 0.6 0.7 0.2 0.3 0.4 0.7 1 1.6 1 3.5 0 2-1 3.6-0.2 0.4-0.4 0.7-0.3 0.4-0.6 0.7-0.4 0.3-0.7 0.6-0.4 0.3-0.8 0.5-1.6 0.9-3.5 0.9zm0-2.4q0.3 0 0.6 0 0.3 0 0.5-0.1 0.3-0.1 0.6-0.2 0.3-0.1 0.5-0.2 0.3-0.2 0.5-0.4 0.3-0.1 0.5-0.3 0.2-0.2 0.3-0.5 0.2-0.2 0.4-0.5 0.5-1 0.5-2.4 0-1.3-0.5-2.3-0.2-0.3-0.4-0.5-0.1-0.3-0.3-0.5-0.2-0.2-0.5-0.3-0.2-0.2-0.5-0.4-0.2-0.1-0.5-0.2-0.3-0.1-0.6-0.2-0.2-0.1-0.5-0.1-0.3 0-0.6 0-0.3 0-0.6 0-0.3 0-0.6 0.1-0.3 0.1-0.5 0.2-0.3 0.1-0.6 0.2-0.2 0.2-0.5 0.4-0.2 0.1-0.4 0.3-0.2 0.2-0.4 0.5-0.1 0.2-0.3 0.5-0.6 1-0.6 2.3 0 1.4 0.6 2.4 0.2 0.3 0.3 0.5 0.2 0.3 0.4 0.5 0.2 0.2 0.4 0.3 0.3 0.2 0.5 0.4 0.3 0.1 0.6 0.2 0.2 0.1 0.5 0.2 0.3 0.1 0.6 0.1 0.3 0 0.6 0zm11.7-11.2v5.7h0.2l4.9-5.7h3v0.1l-4.8 5.5 5.3 7.6v0.1h-3.1l-4-5.7-1.5 1.8v3.9h-2.5c0 0 0-13.3 0-13.3zm11.4-0.3h3.3l3.5 9.4h0.2l3.5-9.4h3.3v13.3h-2.5v-6.6l0.1-2.2h-0.1l-3.4 8.8h-2l-3.4-8.8h-0.1l0.1 2.2v6.6h-2.5c0 0 0-13.3 0-13.3zm20.8 0h2.9l5.1 13.3h-2.8l-1.1-3.2h-5.2l-1.1 3.2h-2.8zm3.2 7.9l-1.1-3.4-0.5-1.6h-0.2l-0.5 1.6-1.2 3.4c0 0 3.5 0 3.5 0zm6.8-7.9h4.9q1.3 0 2.3 0.6 1 0.5 1.6 1.5 0.5 0.9 0.5 2.1 0 1.3-0.8 2.3-0.2 0.3-0.4 0.5-0.2 0.2-0.5 0.4-0.2 0.2-0.5 0.3-0.3 0.2-0.6 0.3v0.1l3.6 5.1v0.2h-2.9l-3.5-5h-1.2v5h-2.5zm4.9 6q0.8 0 1.4-0.5 0.5-0.5 0.5-1.3 0-0.8-0.5-1.3-0.5-0.6-1.4-0.6h-2.4v3.7c0 0 2.4 0 2.4 0zm7.2-6h2.5v5.7h0.2l4.9-5.7h3v0.1l-4.8 5.6 5.3 7.5v0.2h-3.1l-4-5.7-1.5 1.7v4h-2.5zm-124.1 19c-7 0-12.5-5.6-12.5-12.5 0-7 5.5-12.5 12.5-12.5 6.9 0 12.5 5.5 12.5 12.5 0 6.9-5.6 12.5-12.5 12.5zm-3.5-16v10l3.5-3.5 3.5 3.5v-10q0-0.4-0.1-0.8-0.2-0.4-0.4-0.7-0.3-0.2-0.7-0.4-0.4-0.1-0.8-0.1h-3q-0.4 0-0.8 0.1-0.4 0.2-0.7 0.4-0.2 0.3-0.4 0.7-0.1 0.4-0.1 0.8z"/>
</svg>